# Blender 4.0.2
# www.blender.org
mtllib lidar.mtl
o lidar
v 0.019962 0.020000 0.001231
v 0.019962 0.000000 0.001231
v 0.020000 0.020000 -0.000000
v 0.020000 0.000000 -0.000000
v 0.019962 0.020000 -0.001231
v 0.019962 0.000000 -0.001231
v 0.019848 0.020000 -0.002458
v 0.019848 0.000000 -0.002458
v 0.019659 0.020000 -0.003675
v 0.019659 0.000000 -0.003675
v 0.019396 0.020000 -0.004878
v 0.019396 0.000000 -0.004878
v 0.019059 0.020000 -0.006063
v 0.019059 0.000000 -0.006063
v 0.018649 0.020000 -0.007225
v 0.018649 0.000000 -0.007225
v 0.018169 0.020000 -0.008359
v 0.018169 0.000000 -0.008359
v 0.017620 0.020000 -0.009462
v 0.017620 0.000000 -0.009462
v 0.017004 0.020000 -0.010529
v 0.017004 0.000000 -0.010529
v 0.016324 0.020000 -0.011555
v 0.016324 0.000000 -0.011555
v 0.015582 0.020000 -0.012538
v 0.015582 0.000000 -0.012538
v 0.014780 0.020000 -0.013474
v 0.014780 0.000000 -0.013474
v 0.013923 0.020000 -0.014358
v 0.013923 0.000000 -0.014358
v 0.013012 0.020000 -0.015188
v 0.013012 0.000000 -0.015188
v 0.012053 0.020000 -0.015960
v 0.012053 0.000000 -0.015960
v 0.011047 0.020000 -0.016672
v 0.011047 0.000000 -0.016672
v 0.010000 0.020000 -0.017321
v 0.010000 0.000000 -0.017321
v 0.008915 0.020000 -0.017903
v 0.008915 0.000000 -0.017903
v 0.007796 0.020000 -0.018418
v 0.007796 0.000000 -0.018418
v 0.006647 0.020000 -0.018863
v 0.006647 0.000000 -0.018863
v 0.005473 0.020000 -0.019237
v 0.005473 0.000000 -0.019237
v 0.004279 0.020000 -0.019537
v 0.004279 0.000000 -0.019537
v 0.003068 0.020000 -0.019763
v 0.003068 0.000000 -0.019763
v 0.001845 0.020000 -0.019915
v 0.001845 0.000000 -0.019915
v 0.000616 0.020000 -0.019991
v 0.000616 0.000000 -0.019991
v -0.000616 0.020000 -0.019991
v -0.000616 0.000000 -0.019991
v -0.001845 0.020000 -0.019915
v -0.001845 0.000000 -0.019915
v -0.003068 0.020000 -0.019763
v -0.003068 0.000000 -0.019763
v -0.004279 0.020000 -0.019537
v -0.004279 0.000000 -0.019537
v -0.005473 0.020000 -0.019237
v -0.005473 0.000000 -0.019237
v -0.006647 0.020000 -0.018863
v -0.006647 0.000000 -0.018863
v -0.007796 0.020000 -0.018418
v -0.007796 0.000000 -0.018418
v -0.008915 0.020000 -0.017903
v -0.008915 0.000000 -0.017903
v -0.010000 0.020000 -0.017321
v -0.010000 0.000000 -0.017321
v -0.011047 0.020000 -0.016672
v -0.011047 0.000000 -0.016672
v -0.012053 0.020000 -0.015960
v -0.012053 0.000000 -0.015960
v -0.013012 0.020000 -0.015188
v -0.013012 0.000000 -0.015188
v -0.013923 0.020000 -0.014358
v -0.013923 0.000000 -0.014358
v -0.014780 0.020000 -0.013474
v -0.014780 0.000000 -0.013474
v -0.015582 0.020000 -0.012538
v -0.015582 0.000000 -0.012538
v -0.016324 0.020000 -0.011555
v -0.016324 0.000000 -0.011555
v -0.017004 0.020000 -0.010529
v -0.017004 0.000000 -0.010529
v -0.017620 0.020000 -0.009462
v -0.017620 0.000000 -0.009462
v -0.018169 0.020000 -0.008359
v -0.018169 0.000000 -0.008359
v -0.018649 0.020000 -0.007225
v -0.018649 0.000000 -0.007225
v -0.019059 0.020000 -0.006063
v -0.019059 0.000000 -0.006063
v -0.019396 0.020000 -0.004878
v -0.019396 0.000000 -0.004878
v -0.019659 0.020000 -0.003675
v -0.019659 0.000000 -0.003675
v -0.019848 0.020000 -0.002458
v -0.019848 0.000000 -0.002458
v -0.019962 0.020000 -0.001231
v -0.019962 0.000000 -0.001231
v -0.020000 0.020000 0.000000
v -0.020000 0.000000 0.000000
v -0.019962 0.020000 0.001231
v -0.019962 0.000000 0.001231
v -0.019848 0.020000 0.002458
v -0.019848 0.000000 0.002458
v -0.019659 0.020000 0.003675
v -0.019659 0.000000 0.003675
v -0.019396 0.020000 0.004878
v -0.019396 0.000000 0.004878
v -0.019059 0.020000 0.006063
v -0.019059 0.000000 0.006063
v -0.018649 0.020000 0.007225
v -0.018649 0.000000 0.007225
v -0.018169 0.020000 0.008359
v -0.018169 0.000000 0.008359
v -0.017620 0.020000 0.009462
v -0.017620 0.000000 0.009462
v -0.017004 0.020000 0.010529
v -0.017004 0.000000 0.010529
v -0.016324 0.020000 0.011555
v -0.016324 0.000000 0.011555
v -0.015582 0.020000 0.012538
v -0.015582 0.000000 0.012538
v -0.014780 0.020000 0.013474
v -0.014780 0.000000 0.013474
v -0.013923 0.020000 0.014358
v -0.013923 0.000000 0.014358
v -0.013012 0.020000 0.015188
v -0.013012 0.000000 0.015188
v -0.012053 0.020000 0.015960
v -0.012053 0.000000 0.015960
v -0.011047 0.020000 0.016672
v -0.011047 0.000000 0.016672
v -0.010000 0.020000 0.017321
v -0.010000 0.000000 0.017321
v -0.008915 0.020000 0.017903
v -0.008915 0.000000 0.017903
v -0.007796 0.020000 0.018418
v -0.007796 0.000000 0.018418
v -0.006647 0.020000 0.018863
v -0.006647 0.000000 0.018863
v -0.005473 0.020000 0.019237
v -0.005473 0.000000 0.019237
v -0.004279 0.020000 0.019537
v -0.004279 0.000000 0.019537
v -0.003068 0.020000 0.019763
v -0.003068 0.000000 0.019763
v -0.001845 0.020000 0.019915
v -0.001845 0.000000 0.019915
v -0.000616 0.020000 0.019991
v -0.000616 0.000000 0.019991
v 0.000616 0.020000 0.019991
v 0.000616 0.000000 0.019991
v 0.001845 0.020000 0.019915
v 0.001845 0.000000 0.019915
v 0.003068 0.020000 0.019763
v 0.003068 0.000000 0.019763
v 0.004279 0.020000 0.019537
v 0.004279 0.000000 0.019537
v 0.005473 0.020000 0.019237
v 0.005473 0.000000 0.019237
v 0.006647 0.020000 0.018863
v 0.006647 0.000000 0.018863
v 0.007796 0.020000 0.018418
v 0.007796 0.000000 0.018418
v 0.008915 0.020000 0.017903
v 0.008915 0.000000 0.017903
v 0.010000 0.020000 0.017321
v 0.010000 0.000000 0.017321
v 0.011047 0.020000 0.016672
v 0.011047 0.000000 0.016672
v 0.012053 0.020000 0.015960
v 0.012053 0.000000 0.015960
v 0.013012 0.020000 0.015188
v 0.013012 0.000000 0.015188
v 0.013923 0.020000 0.014358
v 0.013923 0.000000 0.014358
v 0.014780 0.020000 0.013474
v 0.014780 0.000000 0.013474
v 0.015582 0.020000 0.012538
v 0.015582 0.000000 0.012538
v 0.016324 0.020000 0.011555
v 0.016324 0.000000 0.011555
v 0.017004 0.020000 0.010529
v 0.017004 0.000000 0.010529
v 0.017620 0.020000 0.009462
v 0.017620 0.000000 0.009462
v 0.018169 0.020000 0.008359
v 0.018169 0.000000 0.008359
v 0.018649 0.020000 0.007225
v 0.018649 0.000000 0.007225
v 0.019059 0.020000 0.006063
v 0.019059 0.000000 0.006063
v 0.019396 0.020000 0.004878
v 0.019396 0.000000 0.004878
v 0.019659 0.020000 0.003675
v 0.019659 0.000000 0.003675
v 0.019848 0.020000 0.002458
v 0.019848 0.000000 0.002458
vn 0.9995 -0.0000 0.0308
vn 0.9995 -0.0000 -0.0308
vn 0.9957 -0.0000 -0.0923
vn 0.9882 -0.0000 -0.1534
vn 0.9768 -0.0000 -0.2139
vn 0.9618 -0.0000 -0.2737
vn 0.9432 -0.0000 -0.3324
vn 0.9209 -0.0000 -0.3898
vn 0.8952 -0.0000 -0.4457
vn 0.8660 -0.0000 -0.5000
vn 0.8336 -0.0000 -0.5524
vn 0.7980 -0.0000 -0.6026
vn 0.7594 -0.0000 -0.6506
vn 0.7179 -0.0000 -0.6961
vn 0.6737 -0.0000 -0.7390
vn 0.6269 -0.0000 -0.7791
vn 0.5778 -0.0000 -0.8162
vn 0.5264 -0.0000 -0.8502
vn 0.4731 -0.0000 -0.8810
vn 0.4180 -0.0000 -0.9085
vn 0.3612 -0.0000 -0.9325
vn 0.3032 -0.0000 -0.9529
vn 0.2439 -0.0000 -0.9698
vn 0.1837 -0.0000 -0.9830
vn 0.1229 -0.0000 -0.9924
vn 0.0616 -0.0000 -0.9981
vn -0.0000 -0.0000 -1.0000
vn -0.0616 -0.0000 -0.9981
vn -0.1229 -0.0000 -0.9924
vn -0.1837 -0.0000 -0.9830
vn -0.2439 -0.0000 -0.9698
vn -0.3032 -0.0000 -0.9529
vn -0.3612 -0.0000 -0.9325
vn -0.4180 -0.0000 -0.9085
vn -0.4731 -0.0000 -0.8810
vn -0.5264 -0.0000 -0.8502
vn -0.5778 -0.0000 -0.8162
vn -0.6269 -0.0000 -0.7791
vn -0.6737 -0.0000 -0.7390
vn -0.7179 -0.0000 -0.6961
vn -0.7594 -0.0000 -0.6506
vn -0.7980 -0.0000 -0.6026
vn -0.8336 -0.0000 -0.5524
vn -0.8660 -0.0000 -0.5000
vn -0.8952 -0.0000 -0.4457
vn -0.9209 -0.0000 -0.3898
vn -0.9432 -0.0000 -0.3324
vn -0.9618 -0.0000 -0.2737
vn -0.9768 -0.0000 -0.2139
vn -0.9882 -0.0000 -0.1534
vn -0.9957 -0.0000 -0.0923
vn -0.9995 -0.0000 -0.0308
vn -0.9995 -0.0000 0.0308
vn -0.9957 -0.0000 0.0923
vn -0.9882 -0.0000 0.1534
vn -0.9768 -0.0000 0.2139
vn -0.9618 -0.0000 0.2737
vn -0.9432 -0.0000 0.3324
vn -0.9209 -0.0000 0.3898
vn -0.8952 -0.0000 0.4457
vn -0.8660 -0.0000 0.5000
vn -0.8336 -0.0000 0.5524
vn -0.7980 -0.0000 0.6026
vn -0.7594 -0.0000 0.6506
vn -0.7179 -0.0000 0.6961
vn -0.6737 -0.0000 0.7390
vn -0.6269 -0.0000 0.7791
vn -0.5778 -0.0000 0.8162
vn -0.5264 -0.0000 0.8502
vn -0.4731 -0.0000 0.8810
vn -0.4180 -0.0000 0.9085
vn -0.3612 -0.0000 0.9325
vn -0.3032 -0.0000 0.9529
vn -0.2439 -0.0000 0.9698
vn -0.1837 -0.0000 0.9830
vn -0.1229 -0.0000 0.9924
vn -0.0616 -0.0000 0.9981
vn -0.0000 -0.0000 1.0000
vn 0.0616 -0.0000 0.9981
vn 0.1229 -0.0000 0.9924
vn 0.1837 -0.0000 0.9830
vn 0.2439 -0.0000 0.9698
vn 0.3032 -0.0000 0.9529
vn 0.3612 -0.0000 0.9325
vn 0.4180 -0.0000 0.9085
vn 0.4731 -0.0000 0.8810
vn 0.5264 -0.0000 0.8502
vn 0.5778 -0.0000 0.8162
vn 0.6269 -0.0000 0.7791
vn 0.6737 -0.0000 0.7390
vn 0.7179 -0.0000 0.6961
vn 0.7594 -0.0000 0.6506
vn 0.7980 -0.0000 0.6026
vn 0.8336 -0.0000 0.5524
vn 0.8660 -0.0000 0.5000
vn 0.8952 -0.0000 0.4457
vn 0.9209 -0.0000 0.3898
vn 0.9432 -0.0000 0.3324
vn 0.9618 -0.0000 0.2737
vn 0.9768 -0.0000 0.2139
vn 0.9882 -0.0000 0.1534
vn 0.9957 -0.0000 0.0923
vn -0.0000 1.0000 -0.0000
vn -0.0000 -1.0000 -0.0000
s 0
f 1//1 2//1 3//1
f 3//1 2//1 4//1
f 3//2 4//2 5//2
f 5//2 4//2 6//2
f 5//3 6//3 7//3
f 7//3 6//3 8//3
f 7//4 8//4 9//4
f 9//4 8//4 10//4
f 9//5 10//5 11//5
f 11//5 10//5 12//5
f 11//6 12//6 13//6
f 13//6 12//6 14//6
f 13//7 14//7 15//7
f 15//7 14//7 16//7
f 15//8 16//8 17//8
f 17//8 16//8 18//8
f 17//9 18//9 19//9
f 19//9 18//9 20//9
f 19//10 20//10 21//10
f 21//10 20//10 22//10
f 21//11 22//11 23//11
f 23//11 22//11 24//11
f 23//12 24//12 25//12
f 25//12 24//12 26//12
f 25//13 26//13 27//13
f 27//13 26//13 28//13
f 27//14 28//14 29//14
f 29//14 28//14 30//14
f 29//15 30//15 31//15
f 31//15 30//15 32//15
f 31//16 32//16 33//16
f 33//16 32//16 34//16
f 33//17 34//17 35//17
f 35//17 34//17 36//17
f 35//18 36//18 37//18
f 37//18 36//18 38//18
f 37//19 38//19 39//19
f 39//19 38//19 40//19
f 39//20 40//20 41//20
f 41//20 40//20 42//20
f 41//21 42//21 43//21
f 43//21 42//21 44//21
f 43//22 44//22 45//22
f 45//22 44//22 46//22
f 45//23 46//23 47//23
f 47//23 46//23 48//23
f 47//24 48//24 49//24
f 49//24 48//24 50//24
f 49//25 50//25 51//25
f 51//25 50//25 52//25
f 51//26 52//26 53//26
f 53//26 52//26 54//26
f 53//27 54//27 55//27
f 55//27 54//27 56//27
f 55//28 56//28 57//28
f 57//28 56//28 58//28
f 57//29 58//29 59//29
f 59//29 58//29 60//29
f 59//30 60//30 61//30
f 61//30 60//30 62//30
f 61//31 62//31 63//31
f 63//31 62//31 64//31
f 63//32 64//32 65//32
f 65//32 64//32 66//32
f 65//33 66//33 67//33
f 67//33 66//33 68//33
f 67//34 68//34 69//34
f 69//34 68//34 70//34
f 69//35 70//35 71//35
f 71//35 70//35 72//35
f 71//36 72//36 73//36
f 73//36 72//36 74//36
f 73//37 74//37 75//37
f 75//37 74//37 76//37
f 75//38 76//38 77//38
f 77//38 76//38 78//38
f 77//39 78//39 79//39
f 79//39 78//39 80//39
f 79//40 80//40 81//40
f 81//40 80//40 82//40
f 81//41 82//41 83//41
f 83//41 82//41 84//41
f 83//42 84//42 85//42
f 85//42 84//42 86//42
f 85//43 86//43 87//43
f 87//43 86//43 88//43
f 87//44 88//44 89//44
f 89//44 88//44 90//44
f 89//45 90//45 91//45
f 91//45 90//45 92//45
f 91//46 92//46 93//46
f 93//46 92//46 94//46
f 93//47 94//47 95//47
f 95//47 94//47 96//47
f 95//48 96//48 97//48
f 97//48 96//48 98//48
f 97//49 98//49 99//49
f 99//49 98//49 100//49
f 99//50 100//50 101//50
f 101//50 100//50 102//50
f 101//51 102//51 103//51
f 103//51 102//51 104//51
f 103//52 104//52 105//52
f 105//52 104//52 106//52
f 105//53 106//53 107//53
f 107//53 106//53 108//53
f 107//54 108//54 109//54
f 109//54 108//54 110//54
f 109//55 110//55 111//55
f 111//55 110//55 112//55
f 111//56 112//56 113//56
f 113//56 112//56 114//56
f 113//57 114//57 115//57
f 115//57 114//57 116//57
f 115//58 116//58 117//58
f 117//58 116//58 118//58
f 117//59 118//59 119//59
f 119//59 118//59 120//59
f 119//60 120//60 121//60
f 121//60 120//60 122//60
f 121//61 122//61 123//61
f 123//61 122//61 124//61
f 123//62 124//62 125//62
f 125//62 124//62 126//62
f 125//63 126//63 127//63
f 127//63 126//63 128//63
f 127//64 128//64 129//64
f 129//64 128//64 130//64
f 129//65 130//65 131//65
f 131//65 130//65 132//65
f 131//66 132//66 133//66
f 133//66 132//66 134//66
f 133//67 134//67 135//67
f 135//67 134//67 136//67
f 135//68 136//68 137//68
f 137//68 136//68 138//68
f 137//69 138//69 139//69
f 139//69 138//69 140//69
f 139//70 140//70 141//70
f 141//70 140//70 142//70
f 141//71 142//71 143//71
f 143//71 142//71 144//71
f 143//72 144//72 145//72
f 145//72 144//72 146//72
f 145//73 146//73 147//73
f 147//73 146//73 148//73
f 147//74 148//74 149//74
f 149//74 148//74 150//74
f 149//75 150//75 151//75
f 151//75 150//75 152//75
f 151//76 152//76 153//76
f 153//76 152//76 154//76
f 153//77 154//77 155//77
f 155//77 154//77 156//77
f 155//78 156//78 157//78
f 157//78 156//78 158//78
f 157//79 158//79 159//79
f 159//79 158//79 160//79
f 159//80 160//80 161//80
f 161//80 160//80 162//80
f 161//81 162//81 163//81
f 163//81 162//81 164//81
f 163//82 164//82 165//82
f 165//82 164//82 166//82
f 165//83 166//83 167//83
f 167//83 166//83 168//83
f 167//84 168//84 169//84
f 169//84 168//84 170//84
f 169//85 170//85 171//85
f 171//85 170//85 172//85
f 171//86 172//86 173//86
f 173//86 172//86 174//86
f 173//87 174//87 175//87
f 175//87 174//87 176//87
f 175//88 176//88 177//88
f 177//88 176//88 178//88
f 177//89 178//89 179//89
f 179//89 178//89 180//89
f 179//90 180//90 181//90
f 181//90 180//90 182//90
f 181//91 182//91 183//91
f 183//91 182//91 184//91
f 183//92 184//92 185//92
f 185//92 184//92 186//92
f 185//93 186//93 187//93
f 187//93 186//93 188//93
f 187//94 188//94 189//94
f 189//94 188//94 190//94
f 189//95 190//95 191//95
f 191//95 190//95 192//95
f 191//96 192//96 193//96
f 193//96 192//96 194//96
f 193//97 194//97 195//97
f 195//97 194//97 196//97
f 195//98 196//98 197//98
f 197//98 196//98 198//98
f 197//99 198//99 199//99
f 199//99 198//99 200//99
f 199//100 200//100 201//100
f 201//100 200//100 202//100
f 201//101 202//101 203//101
f 203//101 202//101 204//101
f 203//102 204//102 1//102
f 1//102 204//102 2//102
f 5//103 103//103 3//103
f 3//103 103//103 105//103
f 3//103 105//103 1//103
f 1//103 105//103 107//103
f 1//103 107//103 203//103
f 203//103 107//103 109//103
f 203//103 109//103 201//103
f 201//103 109//103 111//103
f 201//103 111//103 199//103
f 199//103 111//103 113//103
f 199//103 113//103 197//103
f 197//103 113//103 115//103
f 197//103 115//103 195//103
f 195//103 115//103 117//103
f 195//103 117//103 193//103
f 193//103 117//103 119//103
f 193//103 119//103 191//103
f 191//103 119//103 121//103
f 191//103 121//103 189//103
f 189//103 121//103 123//103
f 189//103 123//103 187//103
f 187//103 123//103 125//103
f 187//103 125//103 185//103
f 185//103 125//103 127//103
f 185//103 127//103 183//103
f 183//103 127//103 129//103
f 183//103 129//103 181//103
f 181//103 129//103 131//103
f 181//103 131//103 179//103
f 179//103 131//103 133//103
f 179//103 133//103 177//103
f 177//103 133//103 135//103
f 177//103 135//103 175//103
f 175//103 135//103 137//103
f 175//103 137//103 173//103
f 173//103 137//103 139//103
f 173//103 139//103 171//103
f 171//103 139//103 141//103
f 171//103 141//103 169//103
f 169//103 141//103 143//103
f 169//103 143//103 167//103
f 167//103 143//103 145//103
f 167//103 145//103 165//103
f 165//103 145//103 147//103
f 165//103 147//103 163//103
f 163//103 147//103 149//103
f 163//103 149//103 161//103
f 161//103 149//103 151//103
f 161//103 151//103 159//103
f 159//103 151//103 153//103
f 159//103 153//103 157//103
f 157//103 153//103 155//103
f 103//103 5//103 101//103
f 101//103 5//103 7//103
f 101//103 7//103 99//103
f 99//103 7//103 9//103
f 99//103 9//103 97//103
f 97//103 9//103 11//103
f 97//103 11//103 95//103
f 95//103 11//103 13//103
f 95//103 13//103 93//103
f 93//103 13//103 15//103
f 93//103 15//103 91//103
f 91//103 15//103 17//103
f 91//103 17//103 89//103
f 89//103 17//103 19//103
f 89//103 19//103 87//103
f 87//103 19//103 21//103
f 87//103 21//103 85//103
f 85//103 21//103 23//103
f 85//103 23//103 83//103
f 83//103 23//103 25//103
f 83//103 25//103 81//103
f 81//103 25//103 27//103
f 81//103 27//103 79//103
f 79//103 27//103 29//103
f 79//103 29//103 77//103
f 77//103 29//103 31//103
f 77//103 31//103 75//103
f 75//103 31//103 33//103
f 75//103 33//103 73//103
f 73//103 33//103 35//103
f 73//103 35//103 71//103
f 71//103 35//103 37//103
f 71//103 37//103 69//103
f 69//103 37//103 39//103
f 69//103 39//103 67//103
f 67//103 39//103 41//103
f 67//103 41//103 65//103
f 65//103 41//103 43//103
f 65//103 43//103 63//103
f 63//103 43//103 45//103
f 63//103 45//103 61//103
f 61//103 45//103 47//103
f 61//103 47//103 59//103
f 59//103 47//103 49//103
f 59//103 49//103 57//103
f 57//103 49//103 51//103
f 57//103 51//103 55//103
f 55//103 51//103 53//103
f 2//104 108//104 4//104
f 4//104 108//104 106//104
f 4//104 106//104 6//104
f 6//104 106//104 104//104
f 6//104 104//104 8//104
f 8//104 104//104 102//104
f 8//104 102//104 10//104
f 10//104 102//104 100//104
f 10//104 100//104 12//104
f 12//104 100//104 98//104
f 12//104 98//104 14//104
f 14//104 98//104 96//104
f 14//104 96//104 16//104
f 16//104 96//104 94//104
f 16//104 94//104 18//104
f 18//104 94//104 92//104
f 18//104 92//104 20//104
f 20//104 92//104 90//104
f 20//104 90//104 22//104
f 22//104 90//104 88//104
f 22//104 88//104 24//104
f 24//104 88//104 86//104
f 24//104 86//104 26//104
f 26//104 86//104 84//104
f 26//104 84//104 28//104
f 28//104 84//104 82//104
f 28//104 82//104 30//104
f 30//104 82//104 80//104
f 30//104 80//104 32//104
f 32//104 80//104 78//104
f 32//104 78//104 34//104
f 34//104 78//104 76//104
f 34//104 76//104 36//104
f 36//104 76//104 74//104
f 36//104 74//104 38//104
f 38//104 74//104 72//104
f 38//104 72//104 40//104
f 40//104 72//104 70//104
f 40//104 70//104 42//104
f 42//104 70//104 68//104
f 42//104 68//104 44//104
f 44//104 68//104 66//104
f 44//104 66//104 46//104
f 46//104 66//104 64//104
f 46//104 64//104 48//104
f 48//104 64//104 62//104
f 48//104 62//104 50//104
f 50//104 62//104 60//104
f 50//104 60//104 52//104
f 52//104 60//104 58//104
f 52//104 58//104 54//104
f 54//104 58//104 56//104
f 108//104 2//104 110//104
f 110//104 2//104 204//104
f 110//104 204//104 112//104
f 112//104 204//104 202//104
f 112//104 202//104 114//104
f 114//104 202//104 200//104
f 114//104 200//104 116//104
f 116//104 200//104 198//104
f 116//104 198//104 118//104
f 118//104 198//104 196//104
f 118//104 196//104 120//104
f 120//104 196//104 194//104
f 120//104 194//104 122//104
f 122//104 194//104 192//104
f 122//104 192//104 124//104
f 124//104 192//104 190//104
f 124//104 190//104 126//104
f 126//104 190//104 188//104
f 126//104 188//104 128//104
f 128//104 188//104 186//104
f 128//104 186//104 130//104
f 130//104 186//104 184//104
f 130//104 184//104 132//104
f 132//104 184//104 182//104
f 132//104 182//104 134//104
f 134//104 182//104 180//104
f 134//104 180//104 136//104
f 136//104 180//104 178//104
f 136//104 178//104 138//104
f 138//104 178//104 176//104
f 138//104 176//104 140//104
f 140//104 176//104 174//104
f 140//104 174//104 142//104
f 142//104 174//104 172//104
f 142//104 172//104 144//104
f 144//104 172//104 170//104
f 144//104 170//104 146//104
f 146//104 170//104 168//104
f 146//104 168//104 148//104
f 148//104 168//104 166//104
f 148//104 166//104 150//104
f 150//104 166//104 164//104
f 150//104 164//104 152//104
f 152//104 164//104 162//104
f 152//104 162//104 154//104
f 154//104 162//104 160//104
f 154//104 160//104 156//104
f 156//104 160//104 158//104
